<svg width="70" height="70" viewBox="0 0 70 70" fill="none" xmlns="http://www.w3.org/2000/svg">
<rect x="1" y="1" width="68" height="68" rx="7" fill="#FEFAE0" stroke="#432818" stroke-width="2"/>
<path d="M10.6469 63.18C9.77091 63.18 8.98491 62.964 8.28891 62.532C7.60491 62.1 7.05891 61.512 6.65091 60.768C6.25491 60.024 6.05691 59.19 6.05691 58.266C6.05691 57.342 6.25491 56.508 6.65091 55.764C7.05891 55.02 7.60491 54.432 8.28891 54C8.98491 53.568 9.77091 53.352 10.6469 53.352C11.4869 53.352 12.2489 53.526 12.9329 53.874C13.6289 54.21 14.1569 54.672 14.5169 55.26L13.4909 56.52C13.2989 56.244 13.0529 55.992 12.7529 55.764C12.4529 55.536 12.1349 55.356 11.7989 55.224C11.4629 55.092 11.1389 55.026 10.8269 55.026C10.2509 55.026 9.73491 55.17 9.27891 55.458C8.83491 55.734 8.48091 56.118 8.21691 56.61C7.95291 57.102 7.82091 57.654 7.82091 58.266C7.82091 58.878 7.95891 59.43 8.23491 59.922C8.51091 60.402 8.87691 60.786 9.33291 61.074C9.78891 61.362 10.2929 61.506 10.8449 61.506C11.1689 61.506 11.4809 61.452 11.7809 61.344C12.0929 61.236 12.3929 61.074 12.6809 60.858C12.9689 60.642 13.2389 60.378 13.4909 60.066L14.5169 61.326C14.1329 61.866 13.5809 62.31 12.8609 62.658C12.1529 63.006 11.4149 63.18 10.6469 63.18ZM16.2657 63V53.55H18.1377V56.52L17.9577 55.8C18.0897 55.344 18.3117 54.93 18.6237 54.558C18.9477 54.186 19.3137 53.892 19.7217 53.676C20.1417 53.46 20.5737 53.352 21.0177 53.352C21.2217 53.352 21.4137 53.37 21.5937 53.406C21.7857 53.442 21.9357 53.484 22.0437 53.532L21.5577 55.548C21.4137 55.488 21.2517 55.44 21.0717 55.404C20.9037 55.356 20.7357 55.332 20.5677 55.332C20.2437 55.332 19.9317 55.398 19.6317 55.53C19.3437 55.65 19.0857 55.824 18.8577 56.052C18.6417 56.268 18.4677 56.526 18.3357 56.826C18.2037 57.114 18.1377 57.432 18.1377 57.78V63H16.2657ZM27.5312 63.18C26.5592 63.18 25.6952 62.976 24.9392 62.568C24.1952 62.148 23.6072 61.578 23.1752 60.858C22.7552 60.138 22.5452 59.31 22.5452 58.374C22.5452 57.63 22.6652 56.952 22.9052 56.34C23.1452 55.728 23.4752 55.2 23.8952 54.756C24.3272 54.3 24.8372 53.952 25.4252 53.712C26.0252 53.46 26.6732 53.334 27.3692 53.334C27.9812 53.334 28.5512 53.454 29.0792 53.694C29.6072 53.922 30.0632 54.24 30.4472 54.648C30.8432 55.056 31.1432 55.542 31.3472 56.106C31.5632 56.658 31.6652 57.264 31.6532 57.924L31.6352 58.716H23.9132L23.4992 57.24H30.0332L29.7632 57.546V57.114C29.7272 56.718 29.5952 56.364 29.3672 56.052C29.1392 55.74 28.8512 55.494 28.5032 55.314C28.1552 55.134 27.7772 55.044 27.3692 55.044C26.7212 55.044 26.1752 55.17 25.7312 55.422C25.2872 55.662 24.9512 56.022 24.7232 56.502C24.4952 56.97 24.3812 57.552 24.3812 58.248C24.3812 58.908 24.5192 59.484 24.7952 59.976C25.0712 60.456 25.4612 60.828 25.9652 61.092C26.4692 61.356 27.0512 61.488 27.7112 61.488C28.1792 61.488 28.6112 61.41 29.0072 61.254C29.4152 61.098 29.8532 60.816 30.3212 60.408L31.2572 61.722C30.9692 62.01 30.6152 62.262 30.1952 62.478C29.7872 62.694 29.3492 62.868 28.8812 63C28.4252 63.12 27.9752 63.18 27.5312 63.18ZM37.6101 63.18C36.7461 63.18 35.9721 62.97 35.2881 62.55C34.6161 62.118 34.0821 61.536 33.6861 60.804C33.2901 60.06 33.0921 59.214 33.0921 58.266C33.0921 57.318 33.2841 56.478 33.6681 55.746C34.0641 55.002 34.5981 54.42 35.2701 54C35.9421 53.568 36.7041 53.352 37.5561 53.352C38.0241 53.352 38.4741 53.43 38.9061 53.586C39.3501 53.73 39.7461 53.934 40.0941 54.198C40.4421 54.45 40.7121 54.732 40.9041 55.044C41.1081 55.344 41.2101 55.65 41.2101 55.962L40.6701 55.998V49.68H42.5241V63H40.6701V60.75H41.0301C41.0301 61.038 40.9341 61.326 40.7421 61.614C40.5501 61.89 40.2921 62.148 39.9681 62.388C39.6561 62.628 39.2901 62.82 38.8701 62.964C38.4621 63.108 38.0421 63.18 37.6101 63.18ZM37.8621 61.578C38.4261 61.578 38.9241 61.434 39.3561 61.146C39.7881 60.858 40.1241 60.468 40.3641 59.976C40.6161 59.472 40.7421 58.902 40.7421 58.266C40.7421 57.63 40.6161 57.066 40.3641 56.574C40.1241 56.07 39.7881 55.674 39.3561 55.386C38.9241 55.098 38.4261 54.954 37.8621 54.954C37.2981 54.954 36.8001 55.098 36.3681 55.386C35.9361 55.674 35.5941 56.07 35.3421 56.574C35.1021 57.066 34.9821 57.63 34.9821 58.266C34.9821 58.902 35.1021 59.472 35.3421 59.976C35.5941 60.468 35.9361 60.858 36.3681 61.146C36.8001 61.434 37.2981 61.578 37.8621 61.578ZM45.3823 63V53.55H47.2363V63H45.3823ZM46.2823 51.462C45.8863 51.462 45.5803 51.36 45.3643 51.156C45.1483 50.952 45.0403 50.664 45.0403 50.292C45.0403 49.944 45.1483 49.662 45.3643 49.446C45.5923 49.23 45.8983 49.122 46.2823 49.122C46.6783 49.122 46.9843 49.224 47.2003 49.428C47.4163 49.632 47.5243 49.92 47.5243 50.292C47.5243 50.64 47.4103 50.922 47.1823 51.138C46.9663 51.354 46.6663 51.462 46.2823 51.462ZM51.256 63V51.138H53.11V63H51.256ZM49.294 55.35V53.55H55.306V55.35H49.294ZM60.4958 63.18C59.7038 63.18 58.9898 63.042 58.3538 62.766C57.7178 62.49 57.1898 62.082 56.7698 61.542L58.0298 60.462C58.3898 60.882 58.7798 61.188 59.1998 61.38C59.6318 61.56 60.1178 61.65 60.6578 61.65C60.8738 61.65 61.0718 61.626 61.2518 61.578C61.4438 61.518 61.6058 61.434 61.7378 61.326C61.8818 61.218 61.9898 61.092 62.0618 60.948C62.1338 60.792 62.1698 60.624 62.1698 60.444C62.1698 60.132 62.0558 59.88 61.8278 59.688C61.7078 59.604 61.5158 59.514 61.2518 59.418C60.9998 59.31 60.6698 59.202 60.2618 59.094C59.5658 58.914 58.9958 58.71 58.5518 58.482C58.1078 58.254 57.7658 57.996 57.5258 57.708C57.3458 57.48 57.2138 57.234 57.1298 56.97C57.0458 56.694 57.0038 56.394 57.0038 56.07C57.0038 55.674 57.0878 55.314 57.2558 54.99C57.4358 54.654 57.6758 54.366 57.9758 54.126C58.2878 53.874 58.6478 53.682 59.0558 53.55C59.4758 53.418 59.9198 53.352 60.3878 53.352C60.8318 53.352 61.2698 53.412 61.7018 53.532C62.1458 53.652 62.5538 53.826 62.9258 54.054C63.2978 54.282 63.6098 54.552 63.8618 54.864L62.7998 56.034C62.5718 55.806 62.3198 55.608 62.0438 55.44C61.7798 55.26 61.5098 55.122 61.2338 55.026C60.9578 54.93 60.7058 54.882 60.4778 54.882C60.2258 54.882 59.9978 54.906 59.7938 54.954C59.5898 55.002 59.4158 55.074 59.2718 55.17C59.1398 55.266 59.0378 55.386 58.9658 55.53C58.8938 55.674 58.8578 55.836 58.8578 56.016C58.8698 56.172 58.9058 56.322 58.9658 56.466C59.0378 56.598 59.1338 56.712 59.2538 56.808C59.3858 56.904 59.5838 57.006 59.8478 57.114C60.1118 57.222 60.4478 57.324 60.8558 57.42C61.4558 57.576 61.9478 57.75 62.3318 57.942C62.7278 58.122 63.0398 58.332 63.2678 58.572C63.5078 58.8 63.6758 59.064 63.7718 59.364C63.8678 59.664 63.9158 60 63.9158 60.372C63.9158 60.912 63.7598 61.398 63.4478 61.83C63.1478 62.25 62.7398 62.58 62.2238 62.82C61.7078 63.06 61.1318 63.18 60.4958 63.18Z" fill="#432818"/>
<path d="M31.1481 22.7826C31.1481 22.552 31.2398 22.3308 31.4031 22.1677C31.5663 22.0047 31.7877 21.913 32.0185 21.913H45.9444C46.1753 21.913 46.3967 22.0047 46.5599 22.1677C46.7231 22.3308 46.8148 22.552 46.8148 22.7826C46.8148 23.0132 46.7231 23.2344 46.5599 23.3975C46.3967 23.5606 46.1753 23.6522 45.9444 23.6522H32.0185C31.7877 23.6522 31.5663 23.5606 31.4031 23.3975C31.2398 23.2344 31.1481 23.0132 31.1481 22.7826ZM32.0185 30.6087H45.9444C46.1753 30.6087 46.3967 30.5171 46.5599 30.354C46.7231 30.1909 46.8148 29.9698 46.8148 29.7391C46.8148 29.5085 46.7231 29.2873 46.5599 29.1243C46.3967 28.9612 46.1753 28.8696 45.9444 28.8696H32.0185C31.7877 28.8696 31.5663 28.9612 31.4031 29.1243C31.2398 29.2873 31.1481 29.5085 31.1481 29.7391C31.1481 29.9698 31.2398 30.1909 31.4031 30.354C31.5663 30.5171 31.7877 30.6087 32.0185 30.6087ZM59 41.913C59 43.5274 58.3581 45.0756 57.2155 46.2172C56.0729 47.3587 54.5233 48 52.9074 48H28.537C26.9212 48 25.3715 47.3587 24.2289 46.2172C23.0863 45.0756 22.4444 43.5274 22.4444 41.913V14.087C22.4444 12.9338 21.9859 11.828 21.1698 11.0126C20.3537 10.1972 19.2468 9.73913 18.0926 9.73913C16.9384 9.73913 15.8315 10.1972 15.0154 11.0126C14.1992 11.828 13.7407 12.9338 13.7407 14.087C13.7407 15.7783 15.1203 16.8587 15.1333 16.8696C15.318 17.0079 15.4401 17.2139 15.4727 17.4422C15.5054 17.6705 15.4459 17.9025 15.3074 18.087C15.1689 18.2715 14.9627 18.3934 14.7342 18.426C14.5057 18.4587 14.2736 18.3992 14.0889 18.2609C14.004 18.1978 12 16.6652 12 14.087C12 12.4726 12.6419 10.9244 13.7845 9.78283C14.9271 8.6413 16.4767 8 18.0926 8H47.6852C49.301 8 50.8507 8.6413 51.9933 9.78283C53.1359 10.9244 53.7778 12.4726 53.7778 14.087V37.5652H56.3889C56.5772 37.5652 56.7605 37.6262 56.9111 37.7391C56.996 37.8022 59 39.3348 59 41.913ZM32.8889 41.913C32.8889 40.2217 31.5094 39.1413 31.4963 39.1304C31.3502 39.0209 31.2422 38.8683 31.1877 38.6941C31.1333 38.5199 31.135 38.3329 31.1928 38.1598C31.2506 37.9867 31.3614 37.8361 31.5096 37.7294C31.6578 37.6226 31.8358 37.5652 32.0185 37.5652H52.037V14.087C52.037 12.9338 51.5785 11.828 50.7624 11.0126C49.9463 10.1972 48.8394 9.73913 47.6852 9.73913H22.3509C22.9319 10.3047 23.3935 10.9808 23.7086 11.7275C24.0236 12.4743 24.1857 13.2766 24.1852 14.087V41.913C24.1852 43.0662 24.6437 44.172 25.4598 44.9874C26.2759 45.8028 27.3829 46.2609 28.537 46.2609C29.6912 46.2609 30.7981 45.8028 31.6143 44.9874C32.4304 44.172 32.8889 43.0662 32.8889 41.913ZM57.2593 41.913C57.2593 40.6087 56.4455 39.6739 56.0625 39.3043H33.892C34.3705 40.0908 34.6255 40.9927 34.6296 41.913C34.6299 42.7232 34.468 43.5252 34.1533 44.2719C33.8387 45.0186 33.3777 45.6949 32.7975 46.2609H52.9074C54.0616 46.2609 55.1685 45.8028 55.9846 44.9874C56.8008 44.172 57.2593 43.0662 57.2593 41.913Z" fill="#432818"/>
</svg>
