<svg width="46" height="43" viewBox="0 0 46 43" fill="none" xmlns="http://www.w3.org/2000/svg">
<rect x="1" y="1" width="44" height="41" rx="7" fill="#FEFAE0" stroke="#432818" stroke-width="2"/>
<path d="M23 30C22.2667 30 21.6391 29.7456 21.1173 29.2369C20.5956 28.7282 20.3342 28.1159 20.3333 27.4H25.6667C25.6667 28.115 25.4058 28.7273 24.884 29.2369C24.3622 29.7465 23.7342 30.0009 23 30ZM19 26.1C18.6222 26.1 18.3058 25.9752 18.0507 25.7256C17.7956 25.476 17.6676 25.1675 17.6667 24.8C17.6658 24.4325 17.7938 24.124 18.0507 23.8744C18.3076 23.6248 18.624 23.5 19 23.5H27C27.3778 23.5 27.6947 23.6248 27.9507 23.8744C28.2067 24.124 28.3342 24.4325 28.3333 24.8C28.3324 25.1675 28.2044 25.4764 27.9493 25.7269C27.6942 25.9774 27.3778 26.1017 27 26.1H19ZM18 22.2C16.4667 21.3117 15.2498 20.12 14.3493 18.625C13.4489 17.13 12.9991 15.505 13 13.75C13 11.0417 13.9724 8.7398 15.9173 6.8444C17.8622 4.949 20.2231 4.00087 23 4C25.7769 3.99913 28.1382 4.94727 30.084 6.8444C32.0298 8.74153 33.0018 11.0434 33 13.75C33 15.505 32.5502 17.13 31.6507 18.625C30.7511 20.12 29.5342 21.3117 28 22.2H18ZM18.8 19.6H27.2C28.2 18.9067 28.9724 18.0508 29.5173 17.0325C30.0622 16.0142 30.3342 14.92 30.3333 13.75C30.3333 11.7567 29.6222 10.0667 28.2 8.68C26.7778 7.29333 25.0444 6.6 23 6.6C20.9556 6.6 19.2222 7.29333 17.8 8.68C16.3778 10.0667 15.6667 11.7567 15.6667 13.75C15.6667 14.92 15.9391 16.0142 16.484 17.0325C17.0289 18.0508 17.8009 18.9067 18.8 19.6Z" fill="#432818"/>
<path d="M12.7546 40V31.12H13.9906V34.996L13.7746 35.14C13.8546 34.86 14.0106 34.604 14.2426 34.372C14.4746 34.132 14.7506 33.94 15.0706 33.796C15.3906 33.644 15.7186 33.568 16.0546 33.568C16.5346 33.568 16.9346 33.664 17.2546 33.856C17.5746 34.04 17.8146 34.324 17.9746 34.708C18.1346 35.092 18.2146 35.576 18.2146 36.16V40H16.9786V36.244C16.9786 35.884 16.9306 35.588 16.8346 35.356C16.7386 35.116 16.5906 34.944 16.3906 34.84C16.1906 34.728 15.9426 34.68 15.6466 34.696C15.4066 34.696 15.1866 34.736 14.9866 34.816C14.7866 34.888 14.6106 34.992 14.4586 35.128C14.3146 35.264 14.1986 35.424 14.1106 35.608C14.0306 35.784 13.9906 35.976 13.9906 36.184V40H13.3786C13.2746 40 13.1706 40 13.0666 40C12.9626 40 12.8586 40 12.7546 40ZM20.0953 40V33.7H21.3313V40H20.0953ZM20.6953 32.308C20.4313 32.308 20.2273 32.24 20.0833 32.104C19.9393 31.968 19.8673 31.776 19.8673 31.528C19.8673 31.296 19.9393 31.108 20.0833 30.964C20.2353 30.82 20.4393 30.748 20.6953 30.748C20.9593 30.748 21.1633 30.816 21.3073 30.952C21.4513 31.088 21.5233 31.28 21.5233 31.528C21.5233 31.76 21.4473 31.948 21.2953 32.092C21.1513 32.236 20.9513 32.308 20.6953 32.308ZM23.2312 40V33.7H24.4672V34.996L24.2512 35.14C24.3312 34.86 24.4872 34.604 24.7192 34.372C24.9512 34.132 25.2272 33.94 25.5472 33.796C25.8672 33.644 26.1952 33.568 26.5312 33.568C27.0112 33.568 27.4112 33.664 27.7312 33.856C28.0512 34.04 28.2912 34.324 28.4512 34.708C28.6112 35.092 28.6912 35.576 28.6912 36.16V40H27.4552V36.244C27.4552 35.884 27.4072 35.588 27.3112 35.356C27.2152 35.116 27.0672 34.944 26.8672 34.84C26.6672 34.728 26.4192 34.68 26.1232 34.696C25.8832 34.696 25.6632 34.736 25.4632 34.816C25.2632 34.888 25.0872 34.992 24.9352 35.128C24.7912 35.264 24.6752 35.424 24.5872 35.608C24.5072 35.784 24.4672 35.976 24.4672 36.184V40H23.8552C23.7512 40 23.6472 40 23.5432 40C23.4392 40 23.3352 40 23.2312 40ZM31.1479 40V32.092H32.3839V40H31.1479ZM29.8399 34.9V33.7H33.8479V34.9H29.8399Z" fill="#432818"/>
</svg>
