<svg width="46" height="43" viewBox="0 0 46 43" fill="none" xmlns="http://www.w3.org/2000/svg">
<rect x="1" y="1" width="44" height="41" rx="7" fill="#FEFAE0" stroke="#432818" stroke-width="2"/>
<path d="M23.125 39C22.1625 39 21.3388 38.6576 20.654 37.9728C19.9692 37.2879 19.6262 36.4637 19.625 35.5H26.625C26.625 36.4625 26.2826 37.2868 25.5978 37.9728C24.9129 38.6588 24.0887 39.0012 23.125 39ZM17.875 33.75C17.3792 33.75 16.9638 33.582 16.629 33.246C16.2942 32.91 16.1262 32.4947 16.125 32C16.1238 31.5053 16.2918 31.09 16.629 30.754C16.9662 30.418 17.3815 30.25 17.875 30.25H28.375C28.8708 30.25 29.2868 30.418 29.6228 30.754C29.9588 31.09 30.1262 31.5053 30.125 32C30.1238 32.4947 29.9558 32.9106 29.621 33.2477C29.2862 33.5849 28.8708 33.7523 28.375 33.75H17.875ZM16.5625 28.5C14.55 27.3042 12.9528 25.7 11.771 23.6875C10.5892 21.675 9.99884 19.4875 10 17.125C10 13.4792 11.2763 10.3805 13.829 7.829C16.3817 5.2775 19.4803 4.00117 23.125 4C26.7697 3.99883 29.8689 5.27517 32.4228 7.829C34.9766 10.3828 36.2523 13.4815 36.25 17.125C36.25 19.4875 35.6597 21.675 34.479 23.6875C33.2983 25.7 31.7012 27.3042 29.6875 28.5H16.5625ZM17.6125 25H28.6375C29.95 24.0667 30.9638 22.9146 31.679 21.5437C32.3942 20.1729 32.7512 18.7 32.75 17.125C32.75 14.4417 31.8167 12.1667 29.95 10.3C28.0833 8.43333 25.8083 7.5 23.125 7.5C20.4417 7.5 18.1667 8.43333 16.3 10.3C14.4333 12.1667 13.5 14.4417 13.5 17.125C13.5 18.7 13.8576 20.1729 14.5728 21.5437C15.2879 22.9146 16.3012 24.0667 17.6125 25Z" fill="#432818"/>
</svg>
