<svg width="429" height="227" viewBox="0 0 429 227" fill="none" xmlns="http://www.w3.org/2000/svg">
<mask id="path-1-inside-1_31_57" fill="white">
<path d="M15.4511 0H222.226H325.613H377.306H403.153H413.554C413.554 0 413.554 4.93478 414.742 7.40217C415.93 9.86956 416.794 10.5102 418.307 12.337C420.018 14.4037 421.91 16.0331 424.249 17.2717C425.998 18.1985 429 17.5898 429 17.5898V28.375V56.75V113.5V170.25V198.625V208.495C429 208.495 424.42 209.451 421.872 210.962C418.453 212.99 416.258 214.963 414.742 218.364C413.226 221.765 413.554 227 413.554 227H402.187H375.375H321.75H214.5H107.25H53.625H26.8125H15.4511L14.2627 220.832L11.886 215.897L9.50925 213.429L5.94415 210.962L0 208.495V198.625V170.25V113.5V56.75V28.375V17.2717C0 17.2717 8.32088 14.8043 9.50925 13.5707C10.6976 12.337 11.886 11.1033 13.0743 8.63587C14.2627 6.16848 15.4511 0 15.4511 0Z"/>
</mask>
<path d="M15.4511 0H222.226H325.613H377.306H403.153H413.554C413.554 0 413.554 4.93478 414.742 7.40217C415.93 9.86956 416.794 10.5102 418.307 12.337C420.018 14.4037 421.91 16.0331 424.249 17.2717C425.998 18.1985 429 17.5898 429 17.5898V28.375V56.75V113.5V170.25V198.625V208.495C429 208.495 424.42 209.451 421.872 210.962C418.453 212.99 416.258 214.963 414.742 218.364C413.226 221.765 413.554 227 413.554 227H402.187H375.375H321.75H214.5H107.25H53.625H26.8125H15.4511L14.2627 220.832L11.886 215.897L9.50925 213.429L5.94415 210.962L0 208.495V198.625V170.25V113.5V56.75V28.375V17.2717C0 17.2717 8.32088 14.8043 9.50925 13.5707C10.6976 12.337 11.886 11.1033 13.0743 8.63587C14.2627 6.16848 15.4511 0 15.4511 0Z" fill="#EDB251"/>
<path d="M-1.5 113.5C-0.5 113.5 0.5 113.5 1.5 113.5C1.5 107.966 1.5 102.432 1.5 96.8983C1.5 83.5155 1.5 70.1328 1.5 56.75C1.5 54.288 1.5 51.826 1.5 49.364C1.5 42.3676 1.5 35.3713 1.5 28.375C1.5 24.6739 1.5 20.9728 1.5 17.2717L0.426441 18.7098C3.83385 17.542 6.70277 17.16 10.5896 14.6113C12.0487 13.1725 13.519 11.2569 14.4258 9.28675C15.764 6.15241 16.2817 3.30042 16.924 0.283759L15.4511 1.5C84.3759 1.5 153.301 1.5 222.226 1.5C256.688 1.5 291.15 1.5 325.613 1.5C342.844 1.5 360.075 1.5 377.306 1.5C385.922 1.5 394.538 1.5 403.153 1.5C406.62 1.5 410.087 1.5 413.554 1.5L412.054 -9.86984e-07C412.147 2.68048 412.184 5.18305 413.391 8.05306C414.252 10.0567 415.962 11.8984 417.152 13.2936C418.888 15.4092 421.063 17.2978 423.547 18.5973C425.724 19.5937 427.442 19.3315 429.298 19.0599L427.5 17.5898C427.5 21.1849 427.5 24.7799 427.5 28.375C427.5 37.8333 427.5 47.2917 427.5 56.75C427.5 75.6667 427.5 94.5833 427.5 113.5C427.5 132.417 427.5 151.333 427.5 170.25C427.5 179.708 427.5 189.167 427.5 198.625C427.5 201.915 427.5 205.205 427.5 208.495L428.694 207.026C426.099 207.633 423.648 208.256 421.107 209.672C418.014 211.422 414.832 214.19 413.372 217.753C412.065 220.925 411.966 223.957 412.057 227.094L413.554 225.5C409.765 225.5 405.976 225.5 402.187 225.5C393.25 225.5 384.312 225.5 375.375 225.5C357.5 225.5 339.625 225.5 321.75 225.5C286 225.5 250.25 225.5 214.5 225.5C178.75 225.5 143 225.5 107.25 225.5C89.375 225.5 71.5 225.5 53.625 225.5C44.6875 225.5 35.75 225.5 26.8125 225.5C23.0254 225.5 19.2382 225.5 15.4511 225.5L16.924 226.716C16.5279 224.66 16.1317 222.604 15.7356 220.548L15.6141 220.181C14.8219 218.536 14.0296 216.891 13.2374 215.246L12.9663 214.856C12.1741 214.034 11.3818 213.211 10.5896 212.389L10.3629 212.196C9.17452 211.373 7.98615 210.551 6.79779 209.729L6.51922 209.577C4.53784 208.754 2.55645 207.932 0.57507 207.109L1.5 208.495C1.5 205.205 1.5 201.915 1.5 198.625C1.5 191.629 1.5 184.632 1.5 177.636C1.5 175.174 1.5 172.712 1.5 170.25C1.5 151.333 1.5 132.417 1.5 113.5C0.5 113.5 -0.5 113.5 -1.5 113.5C-1.5 132.417 -1.5 151.333 -1.5 170.25C-1.5 172.712 -1.5 175.174 -1.5 177.636C-1.5 184.632 -1.5 191.629 -1.5 198.625C-1.5 201.915 -1.5 205.205 -1.5 208.495V209.496L-0.57507 209.88C1.40631 210.702 3.3877 211.525 5.36908 212.347L5.09051 212.195C6.27888 213.018 7.46724 213.84 8.65561 214.663L8.42892 214.47C9.22117 215.292 10.0134 216.115 10.8057 216.937L10.5346 216.548C11.3268 218.193 12.119 219.837 12.9113 221.482L12.7898 221.115C13.1859 223.171 13.582 225.228 13.9782 227.284L14.2125 228.5H15.4511C19.2382 228.5 23.0254 228.5 26.8125 228.5C35.75 228.5 44.6875 228.5 53.625 228.5C71.5 228.5 89.375 228.5 107.25 228.5C143 228.5 178.75 228.5 214.5 228.5C250.25 228.5 286 228.5 321.75 228.5C339.625 228.5 357.5 228.5 375.375 228.5C384.312 228.5 393.25 228.5 402.187 228.5C405.976 228.5 409.765 228.5 413.554 228.5H415.15L415.051 226.906C414.951 224.227 415.145 221.232 416.112 218.975C417.357 216.02 419.708 213.948 422.637 212.252C424.506 211.19 427 210.488 429.306 209.963L430.5 209.714V208.495C430.5 205.205 430.5 201.915 430.5 198.625C430.5 189.167 430.5 179.708 430.5 170.25C430.5 151.333 430.5 132.417 430.5 113.5C430.5 94.5833 430.5 75.6667 430.5 56.75C430.5 47.2917 430.5 37.8333 430.5 28.375C430.5 24.7799 430.5 21.1849 430.5 17.5898V15.7551L428.702 16.1197C427.413 16.3578 425.718 16.3664 424.951 15.9462C422.836 14.8356 421.015 13.2659 419.462 11.3803C418.017 9.67907 416.881 8.51788 416.093 6.75129C415.307 4.97766 415.101 2.31152 415.054 9.86984e-07L415.054 -1.5H413.554C410.087 -1.5 406.62 -1.5 403.153 -1.5C394.538 -1.5 385.922 -1.5 377.306 -1.5C360.075 -1.5 342.844 -1.5 325.613 -1.5C291.15 -1.5 256.688 -1.5 222.226 -1.5C153.301 -1.5 84.3759 -1.5 15.4511 -1.5H14.2125L13.9782 -0.283759C13.3953 2.53335 12.748 5.61848 11.7229 7.98498C10.9014 9.72308 9.86198 11.0946 8.42892 12.53C6.57294 13.6625 2.61542 14.8972 -0.426441 15.8336L-1.5 16.152V17.2717C-1.5 20.9728 -1.5 24.6739 -1.5 28.375C-1.5 35.3713 -1.5 42.3676 -1.5 49.364C-1.5 51.826 -1.5 54.288 -1.5 56.75C-1.5 70.1328 -1.5 83.5155 -1.5 96.8983C-1.5 102.432 -1.5 107.966 -1.5 113.5ZM1.5 113.5H-1.5H1.5Z" fill="#432818" mask="url(#path-1-inside-1_31_57)"/>
<mask id="path-3-inside-2_31_57" fill="white">
<path d="M23.7944 9.07996H220.722H319.186H368.418H393.035H402.94C402.94 9.07996 402.94 13.62 404.071 15.89C405.203 18.16 406.026 18.7494 407.467 20.43C409.097 22.3313 410.899 23.8304 413.126 24.97C414.792 25.8225 417.651 25.2626 417.651 25.2626V35.185V61.29V113.5V165.71V191.815V200.895C417.651 200.895 413.288 201.774 410.862 203.165C407.606 205.031 405.515 206.846 404.071 209.975C402.628 213.104 402.94 217.92 402.94 217.92H392.115H366.579H315.508H213.365H111.222H60.1505H34.6148H23.7944L22.6626 212.245L20.3991 207.705L18.1355 205.435L14.7402 203.165L9.0791 200.895V191.815V165.71V113.5V61.29V35.185V24.97C9.0791 24.97 17.0038 22.7 18.1355 21.565C19.2673 20.43 20.3991 19.295 21.5309 17.025C22.6626 14.755 23.7944 9.07996 23.7944 9.07996Z"/>
</mask>
<path d="M23.7944 9.07996H220.722H319.186H368.418H393.035H402.94C402.94 9.07996 402.94 13.62 404.071 15.89C405.203 18.16 406.026 18.7494 407.467 20.43C409.097 22.3313 410.899 23.8304 413.126 24.97C414.792 25.8225 417.651 25.2626 417.651 25.2626V35.185V61.29V113.5V165.71V191.815V200.895C417.651 200.895 413.288 201.774 410.862 203.165C407.606 205.031 405.515 206.846 404.071 209.975C402.628 213.104 402.94 217.92 402.94 217.92H392.115H366.579H315.508H213.365H111.222H60.1505H34.6148H23.7944L22.6626 212.245L20.3991 207.705L18.1355 205.435L14.7402 203.165L9.0791 200.895V191.815V165.71V113.5V61.29V35.185V24.97C9.0791 24.97 17.0038 22.7 18.1355 21.565C19.2673 20.43 20.3991 19.295 21.5309 17.025C22.6626 14.755 23.7944 9.07996 23.7944 9.07996Z" fill="#FEFAE0"/>
<path d="M7.5791 113.5C8.5791 113.5 9.5791 113.5 10.5791 113.5C10.5791 108.291 10.5791 103.082 10.5791 97.8731C10.5791 85.6787 10.5791 73.4843 10.5791 61.29C10.5791 58.5699 10.5791 55.8498 10.5791 53.1298C10.5791 47.1482 10.5791 41.1666 10.5791 35.185C10.5791 31.78 10.5791 28.375 10.5791 24.97L9.49216 26.412C12.7416 25.3328 15.4329 25.009 19.1977 22.6241C20.5791 21.3085 21.9991 19.5301 22.8733 17.6943C24.1612 14.7802 24.6502 12.1618 25.2654 9.37333L23.7944 10.58C89.4371 10.58 155.08 10.58 220.722 10.58C253.544 10.58 286.365 10.58 319.186 10.58C335.597 10.58 352.008 10.58 368.418 10.58C376.624 10.58 384.829 10.58 393.035 10.58C396.336 10.58 399.638 10.58 402.94 10.58L401.44 9.07997C401.531 11.5684 401.561 13.8734 402.729 16.5593C403.561 18.4281 405.209 20.136 406.328 21.4062C407.999 23.3742 410.087 25.1154 412.442 26.3053C414.544 27.2314 416.165 26.9835 417.939 26.7346L416.151 25.2626C416.151 28.57 416.151 31.8775 416.151 35.185C416.151 43.8866 416.151 52.5883 416.151 61.29C416.151 78.6933 416.151 96.0966 416.151 113.5C416.151 130.903 416.151 148.307 416.151 165.71C416.151 174.412 416.151 183.113 416.151 191.815C416.151 194.842 416.151 197.868 416.151 200.895L417.354 199.425C414.884 199.984 412.558 200.551 410.116 201.864C407.2 203.461 404.135 205.995 402.709 209.347C401.45 212.299 401.356 215.103 401.443 218.017L402.94 216.42C399.331 216.42 395.723 216.42 392.115 216.42C383.603 216.42 375.091 216.42 366.579 216.42C349.555 216.42 332.531 216.42 315.508 216.42C281.46 216.42 247.412 216.42 213.365 216.42C179.317 216.42 145.27 216.42 111.222 216.42C94.1981 216.42 77.1743 216.42 60.1505 216.42C51.6386 216.42 43.1267 216.42 34.6148 216.42C31.008 216.42 27.4012 216.42 23.7944 216.42L25.2654 217.627C24.8882 215.735 24.5109 213.843 24.1337 211.952L24.005 211.576C23.2505 210.062 22.496 208.549 21.7415 207.036L21.4612 206.646C20.7067 205.889 19.9522 205.132 19.1977 204.376L18.9692 204.188C17.8374 203.431 16.7057 202.675 15.5739 201.918L15.2985 201.773C13.4114 201.016 11.5244 200.259 9.63737 199.503L10.5791 200.895C10.5791 197.868 10.5791 194.842 10.5791 191.815C10.5791 185.833 10.5791 179.852 10.5791 173.87C10.5791 171.15 10.5791 168.43 10.5791 165.71C10.5791 148.307 10.5791 130.903 10.5791 113.5C9.5791 113.5 8.5791 113.5 7.5791 113.5C7.5791 130.903 7.5791 148.307 7.5791 165.71C7.5791 168.43 7.5791 171.15 7.5791 173.87C7.5791 179.852 7.5791 185.833 7.5791 191.815C7.5791 194.842 7.5791 197.868 7.5791 200.895V201.91L8.52084 202.287C10.4079 203.044 12.2949 203.801 14.1819 204.557L13.9065 204.412C15.0383 205.169 16.1701 205.925 17.3018 206.682L17.0734 206.494C17.8279 207.251 18.5824 208.007 19.3369 208.764L19.0567 208.374C19.8112 209.888 20.5657 211.401 21.3202 212.914L21.1916 212.538C21.5689 214.43 21.9461 216.322 22.3234 218.213L22.564 219.42H23.7944C27.4012 219.42 31.008 219.42 34.6148 219.42C43.1267 219.42 51.6386 219.42 60.1505 219.42C77.1743 219.42 94.1981 219.42 111.222 219.42C145.27 219.42 179.317 219.42 213.365 219.42C247.412 219.42 281.46 219.42 315.508 219.42C332.531 219.42 349.555 219.42 366.579 219.42C375.091 219.42 383.603 219.42 392.115 219.42C395.723 219.42 399.331 219.42 402.94 219.42H404.54L404.437 217.823C404.341 215.382 404.533 212.625 405.433 210.603C406.622 207.884 408.847 206.014 411.608 204.466C413.384 203.491 415.758 202.846 417.947 202.365L419.151 202.123V200.895C419.151 197.868 419.151 194.842 419.151 191.815C419.151 183.113 419.151 174.412 419.151 165.71C419.151 148.307 419.151 130.903 419.151 113.5C419.151 96.0966 419.151 78.6933 419.151 61.29C419.151 52.5883 419.151 43.8866 419.151 35.185C419.151 31.8775 419.151 28.57 419.151 25.2626V23.4402L417.362 23.7906C416.141 24.0094 414.525 24.0147 413.809 23.6346C411.815 22.6228 410.087 21.1914 408.606 19.4537C407.225 17.8815 406.164 16.843 405.414 15.2207C404.689 13.6519 404.482 11.1886 404.44 9.07994L404.44 7.57996H402.94C399.638 7.57996 396.336 7.57996 393.035 7.57996C384.829 7.57996 376.624 7.57996 368.418 7.57996C352.008 7.57996 335.597 7.57996 319.186 7.57996C286.365 7.57996 253.544 7.57996 220.722 7.57996C155.08 7.57996 89.4371 7.57996 23.7944 7.57996H22.564L22.3234 8.78659C21.771 11.3706 21.1463 14.2235 20.1885 16.3557C19.4065 17.9521 18.4306 19.1912 17.0734 20.5058C15.3377 21.5207 11.5516 22.6723 8.66604 23.5279L7.5791 23.8393V24.97C7.5791 28.375 7.5791 31.78 7.5791 35.185C7.5791 41.1666 7.5791 47.1482 7.5791 53.1298C7.5791 55.8498 7.5791 58.5699 7.5791 61.29C7.5791 73.4843 7.5791 85.6787 7.5791 97.8731C7.5791 103.082 7.5791 108.291 7.5791 113.5ZM10.5791 113.5H7.5791H10.5791Z" fill="#432818" mask="url(#path-3-inside-2_31_57)"/>
<line x1="107.682" y1="9.07996" x2="107.682" y2="217.92" stroke="#432818" stroke-width="2"/>
</svg>
