<svg width="91" height="67" viewBox="0 0 91 67" fill="none" xmlns="http://www.w3.org/2000/svg">
<rect x="1" y="1" width="89" height="65" rx="7" fill="#FEFAE0" stroke="#432818" stroke-width="2"/>
<path d="M57.6667 54C55.9074 54 54.412 53.3875 53.1806 52.1625C51.9491 50.9375 51.3333 49.45 51.3333 47.7C51.3333 47.49 51.3861 47 51.4917 46.23L36.6611 37.62C36.0981 38.145 35.4472 38.5566 34.7083 38.8548C33.9694 39.153 33.1778 39.3014 32.3333 39.3C30.5741 39.3 29.0787 38.6875 27.8472 37.4625C26.6157 36.2375 26 34.75 26 33C26 31.25 26.6157 29.7625 27.8472 28.5375C29.0787 27.3125 30.5741 26.7 32.3333 26.7C33.1778 26.7 33.9694 26.8491 34.7083 27.1473C35.4472 27.4455 36.0981 27.8564 36.6611 28.38L51.4917 19.77C51.4213 19.525 51.3777 19.2891 51.3608 19.0623C51.3439 18.8355 51.3347 18.5814 51.3333 18.3C51.3333 16.55 51.9491 15.0625 53.1806 13.8375C54.412 12.6125 55.9074 12 57.6667 12C59.4259 12 60.9213 12.6125 62.1528 13.8375C63.3843 15.0625 64 16.55 64 18.3C64 20.05 63.3843 21.5375 62.1528 22.7625C60.9213 23.9875 59.4259 24.6 57.6667 24.6C56.8222 24.6 56.0306 24.4509 55.2917 24.1527C54.5528 23.8545 53.9019 23.4436 53.3389 22.92L38.5083 31.53C38.5787 31.775 38.623 32.0116 38.6413 32.2398C38.6596 32.468 38.6681 32.7214 38.6667 33C38.6653 33.2786 38.6568 33.5327 38.6413 33.7623C38.6259 33.9919 38.5815 34.2278 38.5083 34.47L53.3389 43.08C53.9019 42.555 54.5528 42.1441 55.2917 41.8473C56.0306 41.5505 56.8222 41.4014 57.6667 41.4C59.4259 41.4 60.9213 42.0125 62.1528 43.2375C63.3843 44.4625 64 45.95 64 47.7C64 49.45 63.3843 50.9375 62.1528 52.1625C60.9213 53.3875 59.4259 54 57.6667 54Z" fill="#432818"/>
</svg>
