<svg width="70" height="70" viewBox="0 0 70 70" fill="none" xmlns="http://www.w3.org/2000/svg">
<rect x="1" y="1" width="68" height="68" rx="7" fill="#FEFAE0" stroke="#432818" stroke-width="2"/>
<path d="M47.7567 50C46.2104 50 44.8983 49.4594 43.8203 48.3783C42.7439 47.2957 42.2057 45.9812 42.2057 44.435C42.2057 44.2017 42.3083 43.6129 42.5137 42.6687L25.7207 32.6983C25.2167 33.2801 24.5999 33.7367 23.8703 34.068C23.1408 34.3993 22.3576 34.565 21.5207 34.565C19.9869 34.565 18.6833 34.019 17.61 32.927C16.5367 31.835 16 30.526 16 29C16 27.474 16.5367 26.165 17.61 25.073C18.6833 23.981 19.9869 23.435 21.5207 23.435C22.356 23.435 23.1392 23.6007 23.8703 23.932C24.6014 24.2633 25.2182 24.7207 25.7207 25.304L42.516 15.3757C42.4071 15.0739 42.3286 14.7744 42.2803 14.4773C42.2306 14.1787 42.2057 13.8738 42.2057 13.5627C42.2057 12.018 42.7478 10.7043 43.832 9.62167C44.9162 8.54056 46.2322 8 47.78 8C49.3278 8 50.6407 8.54211 51.7187 9.62633C52.7967 10.7106 53.3349 12.0266 53.3333 13.5743C53.3318 15.1221 52.7912 16.435 51.7117 17.513C50.6321 18.591 49.3177 19.1292 47.7683 19.1277C46.9252 19.1277 46.1474 18.955 45.435 18.6097C44.7226 18.2643 44.1159 17.8 43.615 17.2167L26.8173 27.187C26.9262 27.4888 27.0048 27.789 27.053 28.0877C27.1028 28.3848 27.1277 28.6889 27.1277 29C27.1277 29.3111 27.1028 29.6152 27.053 29.9123C27.0032 30.2094 26.9254 30.5097 26.8197 30.813L43.615 40.7833C44.1174 40.2 44.7241 39.7357 45.435 39.3903C46.1474 39.045 46.9252 38.8723 47.7683 38.8723C49.3146 38.8723 50.629 39.4137 51.7117 40.4963C52.7928 41.5821 53.3333 42.8989 53.3333 44.4467C53.3333 45.9944 52.7912 47.3073 51.707 48.3853C50.6228 49.4633 49.3044 50.0016 47.7567 50ZM47.7683 47.6667C48.6846 47.6667 49.4522 47.3571 50.0713 46.738C50.6904 46.1189 51 45.352 51 44.4373C51 43.5227 50.6904 42.755 50.0713 42.1343C49.4522 41.5137 48.6853 41.2041 47.7707 41.2057C46.856 41.2072 46.0883 41.5168 45.4677 42.1343C44.847 42.7519 44.5374 43.5188 44.539 44.435C44.5406 45.3512 44.8501 46.1189 45.4677 46.738C46.0852 47.3571 46.8506 47.6667 47.7683 47.6667ZM21.5207 32.2293C22.4478 32.2293 23.2256 31.9198 23.854 31.3007C24.4809 30.6816 24.7943 29.9147 24.7943 29C24.7943 28.0853 24.4809 27.3184 23.854 26.6993C23.2271 26.0802 22.4493 25.7707 21.5207 25.7707C20.6169 25.7707 19.8601 26.0802 19.2503 26.6993C18.6406 27.3184 18.3349 28.0853 18.3333 29C18.3318 29.9147 18.6374 30.6823 19.2503 31.303C19.8632 31.9237 20.62 32.2324 21.5207 32.2293ZM47.7707 16.7943C48.6853 16.7943 49.4522 16.4848 50.0713 15.8657C50.6904 15.2466 51 14.4789 51 13.5627C51 12.6464 50.6904 11.8796 50.0713 11.262C49.4522 10.6444 48.6853 10.3349 47.7707 10.3333C46.856 10.3318 46.0883 10.6413 45.4677 11.262C44.847 11.8827 44.5374 12.6503 44.539 13.565C44.5406 14.4797 44.8501 15.2466 45.4677 15.8657C46.0852 16.4848 46.8529 16.7943 47.7707 16.7943Z" fill="#432818"/>
<path d="M13.7115 63.2C12.8315 63.2 12.0382 63.0467 11.3315 62.74C10.6248 62.4333 10.0382 61.98 9.57148 61.38L10.9715 60.18C11.3715 60.6467 11.8048 60.9867 12.2715 61.2C12.7515 61.4 13.2915 61.5 13.8915 61.5C14.1315 61.5 14.3515 61.4733 14.5515 61.42C14.7648 61.3533 14.9448 61.26 15.0915 61.14C15.2515 61.02 15.3715 60.88 15.4515 60.72C15.5315 60.5467 15.5715 60.36 15.5715 60.16C15.5715 59.8133 15.4448 59.5333 15.1915 59.32C15.0582 59.2267 14.8448 59.1267 14.5515 59.02C14.2715 58.9 13.9048 58.78 13.4515 58.66C12.6782 58.46 12.0448 58.2333 11.5515 57.98C11.0582 57.7267 10.6782 57.44 10.4115 57.12C10.2115 56.8667 10.0648 56.5933 9.97148 56.3C9.87815 55.9933 9.83148 55.66 9.83148 55.3C9.83148 54.86 9.92482 54.46 10.1115 54.1C10.3115 53.7267 10.5782 53.4067 10.9115 53.14C11.2582 52.86 11.6582 52.6467 12.1115 52.5C12.5782 52.3533 13.0715 52.28 13.5915 52.28C14.0848 52.28 14.5715 52.3467 15.0515 52.48C15.5448 52.6133 15.9982 52.8067 16.4115 53.06C16.8248 53.3133 17.1715 53.6133 17.4515 53.96L16.2715 55.26C16.0182 55.0067 15.7382 54.7867 15.4315 54.6C15.1382 54.4 14.8382 54.2467 14.5315 54.14C14.2248 54.0333 13.9448 53.98 13.6915 53.98C13.4115 53.98 13.1582 54.0067 12.9315 54.06C12.7048 54.1133 12.5115 54.1933 12.3515 54.3C12.2048 54.4067 12.0915 54.54 12.0115 54.7C11.9315 54.86 11.8915 55.04 11.8915 55.24C11.9048 55.4133 11.9448 55.58 12.0115 55.74C12.0915 55.8867 12.1982 56.0133 12.3315 56.12C12.4782 56.2267 12.6982 56.34 12.9915 56.46C13.2848 56.58 13.6582 56.6933 14.1115 56.8C14.7782 56.9733 15.3248 57.1667 15.7515 57.38C16.1915 57.58 16.5382 57.8133 16.7915 58.08C17.0582 58.3333 17.2448 58.6267 17.3515 58.96C17.4582 59.2933 17.5115 59.6667 17.5115 60.08C17.5115 60.68 17.3382 61.22 16.9915 61.7C16.6582 62.1667 16.2048 62.5333 15.6315 62.8C15.0582 63.0667 14.4182 63.2 13.7115 63.2ZM19.7818 63V48.2H21.8418V54.66L21.4818 54.9C21.6151 54.4333 21.8751 54.0067 22.2618 53.62C22.6485 53.22 23.1085 52.9 23.6418 52.66C24.1751 52.4067 24.7218 52.28 25.2818 52.28C26.0818 52.28 26.7485 52.44 27.2818 52.76C27.8151 53.0667 28.2151 53.54 28.4818 54.18C28.7485 54.82 28.8818 55.6267 28.8818 56.6V63H26.8218V56.74C26.8218 56.14 26.7418 55.6467 26.5818 55.26C26.4218 54.86 26.1751 54.5733 25.8418 54.4C25.5085 54.2133 25.0951 54.1333 24.6018 54.16C24.2018 54.16 23.8351 54.2267 23.5018 54.36C23.1685 54.48 22.8751 54.6533 22.6218 54.88C22.3818 55.1067 22.1885 55.3733 22.0418 55.68C21.9085 55.9733 21.8418 56.2933 21.8418 56.64V63H20.8218C20.6485 63 20.4751 63 20.3018 63C20.1285 63 19.9551 63 19.7818 63ZM35.7163 63.2C34.8497 63.2 34.0563 62.96 33.3363 62.48C32.6297 62 32.063 61.3467 31.6363 60.52C31.2097 59.6933 30.9963 58.76 30.9963 57.72C30.9963 56.6667 31.2097 55.7333 31.6363 54.92C32.0763 54.0933 32.663 53.4467 33.3963 52.98C34.143 52.5133 34.9763 52.28 35.8963 52.28C36.443 52.28 36.943 52.36 37.3963 52.52C37.8497 52.68 38.243 52.9067 38.5763 53.2C38.923 53.48 39.203 53.8067 39.4163 54.18C39.643 54.5533 39.783 54.9533 39.8363 55.38L39.3763 55.22V52.5H41.4563V63H39.3763V60.5L39.8563 60.36C39.7763 60.72 39.6097 61.0733 39.3563 61.42C39.1163 61.7533 38.803 62.0533 38.4163 62.32C38.043 62.5867 37.623 62.8 37.1563 62.96C36.703 63.12 36.223 63.2 35.7163 63.2ZM36.2563 61.3C36.883 61.3 37.4363 61.1467 37.9163 60.84C38.3963 60.5333 38.7697 60.1133 39.0363 59.58C39.3163 59.0333 39.4563 58.4133 39.4563 57.72C39.4563 57.04 39.3163 56.4333 39.0363 55.9C38.7697 55.3667 38.3963 54.9467 37.9163 54.64C37.4363 54.3333 36.883 54.18 36.2563 54.18C35.643 54.18 35.0963 54.3333 34.6163 54.64C34.1497 54.9467 33.7763 55.3667 33.4963 55.9C33.2297 56.4333 33.0963 57.04 33.0963 57.72C33.0963 58.4133 33.2297 59.0333 33.4963 59.58C33.7763 60.1133 34.1497 60.5333 34.6163 60.84C35.0963 61.1467 35.643 61.3 36.2563 61.3ZM44.3326 63V52.5H46.4126V55.8L46.2126 55C46.3592 54.4933 46.6059 54.0333 46.9526 53.62C47.3126 53.2067 47.7192 52.88 48.1726 52.64C48.6392 52.4 49.1192 52.28 49.6126 52.28C49.8392 52.28 50.0526 52.3 50.2526 52.34C50.4659 52.38 50.6326 52.4267 50.7526 52.48L50.2126 54.72C50.0526 54.6533 49.8726 54.6 49.6726 54.56C49.4859 54.5067 49.2992 54.48 49.1126 54.48C48.7526 54.48 48.4059 54.5533 48.0726 54.7C47.7526 54.8333 47.4659 55.0267 47.2126 55.28C46.9726 55.52 46.7792 55.8067 46.6326 56.14C46.4859 56.46 46.4126 56.8133 46.4126 57.2V63H44.3326ZM56.8498 63.2C55.7698 63.2 54.8098 62.9733 53.9698 62.52C53.1431 62.0533 52.4898 61.42 52.0098 60.62C51.5431 59.82 51.3098 58.9 51.3098 57.86C51.3098 57.0333 51.4431 56.28 51.7098 55.6C51.9764 54.92 52.3431 54.3333 52.8098 53.84C53.2898 53.3333 53.8564 52.9467 54.5098 52.68C55.1764 52.4 55.8964 52.26 56.6698 52.26C57.3498 52.26 57.9831 52.3933 58.5698 52.66C59.1564 52.9133 59.6631 53.2667 60.0898 53.72C60.5298 54.1733 60.8631 54.7133 61.0898 55.34C61.3298 55.9533 61.4431 56.6267 61.4298 57.36L61.4098 58.24H52.8298L52.3698 56.6H59.6298L59.3298 56.94V56.46C59.2898 56.02 59.1431 55.6267 58.8898 55.28C58.6364 54.9333 58.3164 54.66 57.9298 54.46C57.5431 54.26 57.1231 54.16 56.6698 54.16C55.9498 54.16 55.3431 54.3 54.8498 54.58C54.3564 54.8467 53.9831 55.2467 53.7298 55.78C53.4764 56.3 53.3498 56.9467 53.3498 57.72C53.3498 58.4533 53.5031 59.0933 53.8098 59.64C54.1164 60.1733 54.5498 60.5867 55.1098 60.88C55.6698 61.1733 56.3164 61.32 57.0498 61.32C57.5698 61.32 58.0498 61.2333 58.4898 61.06C58.9431 60.8867 59.4298 60.5733 59.9498 60.12L60.9898 61.58C60.6698 61.9 60.2764 62.18 59.8098 62.42C59.3564 62.66 58.8698 62.8533 58.3498 63C57.8431 63.1333 57.3431 63.2 56.8498 63.2Z" fill="#432818"/>
</svg>
