<svg width="70" height="70" viewBox="0 0 70 70" fill="none" xmlns="http://www.w3.org/2000/svg">
<rect x="1" y="1" width="68" height="68" rx="7" fill="#FEFAE0" stroke="#432818" stroke-width="2"/>
<path d="M20.875 27.5C21.5161 27.5 22.1523 27.3538 22.7446 27.0735C23.3492 26.7874 23.8885 26.3801 24.3289 25.8767C24.7823 25.3648 25.1406 24.7554 25.3844 24.0875C25.6281 23.4197 25.75 22.703 25.75 21.9815C25.7384 23.4049 26.2463 24.7837 27.1784 25.8596C28.0924 26.8882 29.3331 27.4659 30.625 27.4659C31.9169 27.4659 33.16 26.8882 34.0716 25.8596C35.0037 24.7837 35.5116 23.4049 35.5 21.9815C35.4884 23.4049 35.9963 24.7837 36.9284 25.8596C37.8424 26.8882 39.0831 27.4659 40.375 27.4659C41.6669 27.4659 42.91 26.8882 43.8216 25.8596C44.7537 24.7837 45.2616 23.4049 45.25 21.9815C45.25 22.7006 45.3768 23.4148 45.6205 24.0802C45.8643 24.7457 46.225 25.3502 46.6784 25.8596C47.1188 26.3601 47.6572 26.7649 48.2603 27.0491C48.8438 27.323 49.4804 27.4651 50.125 27.4651C50.7696 27.4651 51.4062 27.323 51.9897 27.0491C52.5937 26.7652 53.1329 26.3604 53.5741 25.8596C54.025 25.3502 54.3833 24.7457 54.6295 24.0802C54.8757 23.4148 55 22.7006 55 21.9815C55 19.6074 52.2992 12.5972 51.0561 9.49911C50.8775 9.05396 50.569 8.6729 50.1707 8.40553C49.7725 8.13816 49.303 7.99687 48.8234 8.00005H21.9865C21.4933 7.99903 21.0115 8.14917 20.6062 8.43027C20.2009 8.71137 19.8915 9.10992 19.7196 9.57224C18.5472 12.7824 16 19.956 16 21.9815C16.0561 23.4197 16.5874 24.7798 17.4893 25.8011C18.3912 26.82 19.5978 27.4269 20.875 27.5ZM20.875 27.5C21.6745 27.5 22.4618 27.2782 23.1663 26.8517C23.8905 26.4099 24.4935 25.7951 24.9212 25.0625H26.5812C27.0075 25.7945 27.6089 26.4093 28.3313 26.8517C29.0382 27.2782 29.8255 27.5 30.6274 27.5C31.4294 27.5 32.2142 27.2782 32.9187 26.8517C33.6256 26.4275 34.2276 25.8108 34.6712 25.0625H36.3312C36.7582 25.7948 37.3604 26.4096 38.0838 26.8517C38.7882 27.2782 39.5755 27.5 40.375 27.5C41.1769 27.5 41.9643 27.2782 42.6711 26.8517C43.378 26.4275 43.9776 25.8108 44.4212 25.0625H46.0812C46.5272 25.8108 47.1293 26.4275 47.8337 26.8517C48.5406 27.2758 49.3279 27.5 50.1274 27.5C51.0576 27.4959 51.9624 27.1963 52.7112 26.6445M20.875 27.5C19.82 27.473 18.8114 27.0602 18.0402 26.3398M18.4375 27.5V44.5625C18.4375 45.209 18.6943 45.829 19.1514 46.2861C19.6085 46.7432 20.2285 47 20.875 47H25.75V34.8125H33.0625V47H50.125C50.7715 47 51.3915 46.7432 51.8486 46.2861C52.3057 45.829 52.5625 45.209 52.5625 44.5625V27.5M40.375 34.8125V39.6875H45.25V34.8125H40.375Z" stroke="#432818" stroke-width="2" stroke-linecap="round" stroke-linejoin="round"/>
<path d="M15.5455 63.2C14.6655 63.2 13.8721 63.0467 13.1655 62.74C12.4588 62.4333 11.8721 61.98 11.4055 61.38L12.8055 60.18C13.2055 60.6467 13.6388 60.9867 14.1055 61.2C14.5855 61.4 15.1255 61.5 15.7255 61.5C15.9655 61.5 16.1855 61.4733 16.3855 61.42C16.5988 61.3533 16.7788 61.26 16.9255 61.14C17.0855 61.02 17.2055 60.88 17.2855 60.72C17.3655 60.5467 17.4055 60.36 17.4055 60.16C17.4055 59.8133 17.2788 59.5333 17.0255 59.32C16.8921 59.2267 16.6788 59.1267 16.3855 59.02C16.1055 58.9 15.7388 58.78 15.2855 58.66C14.5121 58.46 13.8788 58.2333 13.3855 57.98C12.8921 57.7267 12.5121 57.44 12.2455 57.12C12.0455 56.8667 11.8988 56.5933 11.8055 56.3C11.7121 55.9933 11.6655 55.66 11.6655 55.3C11.6655 54.86 11.7588 54.46 11.9455 54.1C12.1455 53.7267 12.4121 53.4067 12.7455 53.14C13.0921 52.86 13.4921 52.6467 13.9455 52.5C14.4121 52.3533 14.9055 52.28 15.4255 52.28C15.9188 52.28 16.4055 52.3467 16.8855 52.48C17.3788 52.6133 17.8321 52.8067 18.2455 53.06C18.6588 53.3133 19.0055 53.6133 19.2855 53.96L18.1055 55.26C17.8521 55.0067 17.5721 54.7867 17.2655 54.6C16.9721 54.4 16.6721 54.2467 16.3655 54.14C16.0588 54.0333 15.7788 53.98 15.5255 53.98C15.2455 53.98 14.9921 54.0067 14.7655 54.06C14.5388 54.1133 14.3455 54.1933 14.1855 54.3C14.0388 54.4067 13.9255 54.54 13.8455 54.7C13.7655 54.86 13.7255 55.04 13.7255 55.24C13.7388 55.4133 13.7788 55.58 13.8455 55.74C13.9255 55.8867 14.0321 56.0133 14.1655 56.12C14.3121 56.2267 14.5321 56.34 14.8255 56.46C15.1188 56.58 15.4921 56.6933 15.9455 56.8C16.6121 56.9733 17.1588 57.1667 17.5855 57.38C18.0255 57.58 18.3721 57.8133 18.6255 58.08C18.8921 58.3333 19.0788 58.6267 19.1855 58.96C19.2921 59.2933 19.3455 59.6667 19.3455 60.08C19.3455 60.68 19.1721 61.22 18.8255 61.7C18.4921 62.1667 18.0388 62.5333 17.4655 62.8C16.8921 63.0667 16.2521 63.2 15.5455 63.2ZM22.9158 63V49.82H24.9758V63H22.9158ZM20.7358 54.5V52.5H27.4158V54.5H20.7358ZM33.9139 63.2C32.8872 63.2 31.9672 62.9667 31.1539 62.5C30.3539 62.02 29.7206 61.3733 29.2539 60.56C28.7872 59.7333 28.5539 58.7933 28.5539 57.74C28.5539 56.6867 28.7872 55.7533 29.2539 54.94C29.7206 54.1133 30.3539 53.4667 31.1539 53C31.9672 52.52 32.8872 52.28 33.9139 52.28C34.9272 52.28 35.8339 52.52 36.6339 53C37.4472 53.4667 38.0872 54.1133 38.5539 54.94C39.0206 55.7533 39.2539 56.6867 39.2539 57.74C39.2539 58.7933 39.0206 59.7333 38.5539 60.56C38.0872 61.3733 37.4472 62.02 36.6339 62.5C35.8339 62.9667 34.9272 63.2 33.9139 63.2ZM33.9139 61.32C34.5406 61.32 35.1006 61.1667 35.5939 60.86C36.0872 60.54 36.4739 60.1133 36.7539 59.58C37.0339 59.0333 37.1672 58.42 37.1539 57.74C37.1672 57.0467 37.0339 56.4333 36.7539 55.9C36.4739 55.3533 36.0872 54.9267 35.5939 54.62C35.1006 54.3133 34.5406 54.16 33.9139 54.16C33.2872 54.16 32.7206 54.32 32.2139 54.64C31.7206 54.9467 31.3339 55.3733 31.0539 55.92C30.7739 56.4533 30.6406 57.06 30.6539 57.74C30.6406 58.42 30.7739 59.0333 31.0539 59.58C31.3339 60.1133 31.7206 60.54 32.2139 60.86C32.7206 61.1667 33.2872 61.32 33.9139 61.32ZM41.4986 63V52.5H43.5786V55.8L43.3786 55C43.5253 54.4933 43.7719 54.0333 44.1186 53.62C44.4786 53.2067 44.8853 52.88 45.3386 52.64C45.8053 52.4 46.2853 52.28 46.7786 52.28C47.0053 52.28 47.2186 52.3 47.4186 52.34C47.6319 52.38 47.7986 52.4267 47.9186 52.48L47.3786 54.72C47.2186 54.6533 47.0386 54.6 46.8386 54.56C46.6519 54.5067 46.4653 54.48 46.2786 54.48C45.9186 54.48 45.5719 54.5533 45.2386 54.7C44.9186 54.8333 44.6319 55.0267 44.3786 55.28C44.1386 55.52 43.9453 55.8067 43.7986 56.14C43.6519 56.46 43.5786 56.8133 43.5786 57.2V63H41.4986ZM54.0158 63.2C52.9358 63.2 51.9758 62.9733 51.1358 62.52C50.3091 62.0533 49.6558 61.42 49.1758 60.62C48.7091 59.82 48.4758 58.9 48.4758 57.86C48.4758 57.0333 48.6091 56.28 48.8758 55.6C49.1424 54.92 49.5091 54.3333 49.9758 53.84C50.4558 53.3333 51.0224 52.9467 51.6758 52.68C52.3424 52.4 53.0624 52.26 53.8358 52.26C54.5158 52.26 55.1491 52.3933 55.7358 52.66C56.3224 52.9133 56.8291 53.2667 57.2558 53.72C57.6958 54.1733 58.0291 54.7133 58.2558 55.34C58.4958 55.9533 58.6091 56.6267 58.5958 57.36L58.5758 58.24H49.9958L49.5358 56.6H56.7958L56.4958 56.94V56.46C56.4558 56.02 56.3091 55.6267 56.0558 55.28C55.8024 54.9333 55.4824 54.66 55.0958 54.46C54.7091 54.26 54.2891 54.16 53.8358 54.16C53.1158 54.16 52.5091 54.3 52.0158 54.58C51.5224 54.8467 51.1491 55.2467 50.8958 55.78C50.6424 56.3 50.5158 56.9467 50.5158 57.72C50.5158 58.4533 50.6691 59.0933 50.9758 59.64C51.2824 60.1733 51.7158 60.5867 52.2758 60.88C52.8358 61.1733 53.4824 61.32 54.2158 61.32C54.7358 61.32 55.2158 61.2333 55.6558 61.06C56.1091 60.8867 56.5958 60.5733 57.1158 60.12L58.1558 61.58C57.8358 61.9 57.4424 62.18 56.9758 62.42C56.5224 62.66 56.0358 62.8533 55.5158 63C55.0091 63.1333 54.5091 63.2 54.0158 63.2Z" fill="#432818"/>
</svg>
